<svg width="542" height="178" viewBox="0 0 542 178" fill="none" xmlns="http://www.w3.org/2000/svg">
<path d="M3.3 52V13.5H25.8225V17.35H7.15V29.45H23.1825V33.3H7.15V52H3.3ZM27.7664 41.4675V24.5H31.6164V40.6975C31.6164 42.2008 31.9831 43.5667 32.7164 44.795C33.4497 46.0233 34.4306 47.0042 35.6589 47.7375C36.9056 48.4708 38.2714 48.8375 39.7564 48.8375C41.2597 48.8375 42.6164 48.4708 43.8264 47.7375C45.0547 47.0042 46.0356 46.0233 46.7689 44.795C47.5022 43.5667 47.8689 42.2008 47.8689 40.6975V24.5H51.7189L51.7464 52H47.8964L47.8689 48.15C46.8972 49.5433 45.6322 50.6525 44.0739 51.4775C42.5339 52.3025 40.8472 52.715 39.0139 52.715C36.9422 52.715 35.0539 52.2108 33.3489 51.2025C31.6439 50.1942 30.2872 48.8375 29.2789 47.1325C28.2706 45.4275 27.7664 43.5392 27.7664 41.4675ZM57.6018 52V10.75H61.4518V52H57.6018ZM68.0754 52V10.75H71.9254V52H68.0754ZM105.209 52.715C103.156 52.715 101.167 52.3942 99.2419 51.7525C97.3352 51.1108 95.6669 50.1942 94.2369 49.0025C92.8069 47.8108 91.7986 46.39 91.2119 44.74L94.8144 43.3925C95.2177 44.5292 95.9511 45.51 97.0144 46.335C98.0961 47.1417 99.3519 47.765 100.782 48.205C102.23 48.645 103.706 48.865 105.209 48.865C106.969 48.865 108.61 48.5717 110.132 47.985C111.654 47.3983 112.882 46.5825 113.817 45.5375C114.752 44.4742 115.219 43.2275 115.219 41.7975C115.219 40.3492 114.734 39.1575 113.762 38.2225C112.79 37.2875 111.534 36.5542 109.994 36.0225C108.473 35.4725 106.878 35.0508 105.209 34.7575C102.588 34.2992 100.232 33.6758 98.1419 32.8875C96.0702 32.0992 94.4294 30.99 93.2194 29.56C92.0094 28.1117 91.4044 26.205 91.4044 23.84C91.4044 21.6217 92.0461 19.6967 93.3294 18.065C94.6127 16.4333 96.2994 15.1683 98.3894 14.27C100.498 13.3717 102.771 12.9225 105.209 12.9225C107.208 12.9225 109.16 13.2342 111.067 13.8575C112.974 14.4808 114.651 15.3883 116.099 16.58C117.566 17.7717 118.62 19.2292 119.262 20.9525L115.604 22.2725C115.201 21.1175 114.459 20.1367 113.377 19.33C112.314 18.505 111.067 17.8817 109.637 17.46C108.207 17.02 106.731 16.8 105.209 16.8C103.468 16.7817 101.836 17.075 100.314 17.68C98.8111 18.2667 97.5919 19.0917 96.6569 20.155C95.7219 21.2 95.2544 22.4283 95.2544 23.84C95.2544 25.49 95.6852 26.7642 96.5469 27.6625C97.4269 28.5425 98.6186 29.2025 100.122 29.6425C101.625 30.0825 103.321 30.4767 105.209 30.825C107.666 31.2467 109.949 31.9067 112.057 32.805C114.165 33.685 115.861 34.8675 117.144 36.3525C118.428 37.8192 119.069 39.6342 119.069 41.7975C119.069 43.9975 118.428 45.9225 117.144 47.5725C115.861 49.2042 114.165 50.4692 112.057 51.3675C109.967 52.2658 107.684 52.715 105.209 52.715ZM139.115 28.35H132.543L132.515 52H128.665L128.693 28.35H123.715V24.5H128.693L128.665 15.865H132.515L132.543 24.5H139.115V28.35ZM165.876 24.5H169.726V52H165.876L165.738 46.885C164.84 48.6267 163.584 50.0383 161.971 51.12C160.357 52.1833 158.432 52.715 156.196 52.715C154.179 52.715 152.291 52.3392 150.531 51.5875C148.771 50.8175 147.222 49.7633 145.883 48.425C144.545 47.0867 143.5 45.5375 142.748 43.7775C141.997 42.0175 141.621 40.1292 141.621 38.1125C141.621 36.1325 141.987 34.2717 142.721 32.53C143.472 30.7883 144.499 29.2575 145.801 27.9375C147.121 26.6175 148.642 25.5908 150.366 24.8575C152.107 24.1058 153.968 23.73 155.948 23.73C158.24 23.73 160.238 24.28 161.943 25.38C163.648 26.4617 165.005 27.8825 166.013 29.6425L165.876 24.5ZM156.113 48.975C158.075 48.975 159.762 48.4983 161.173 47.545C162.585 46.5733 163.667 45.2717 164.418 43.64C165.188 42.0083 165.573 40.2117 165.573 38.25C165.573 36.2333 165.188 34.4183 164.418 32.805C163.648 31.1733 162.557 29.8808 161.146 28.9275C159.734 27.9742 158.057 27.4975 156.113 27.4975C154.17 27.4975 152.392 27.9833 150.778 28.955C149.183 29.9083 147.909 31.2008 146.956 32.8325C146.021 34.4642 145.553 36.27 145.553 38.25C145.553 40.2483 146.039 42.0633 147.011 43.695C147.982 45.3083 149.266 46.5917 150.861 47.545C152.474 48.4983 154.225 48.975 156.113 48.975ZM194.327 45.0975L197.764 46.9675C196.517 48.7092 194.932 50.1025 193.007 51.1475C191.1 52.1925 189.028 52.715 186.792 52.715C184.262 52.715 181.952 52.0642 179.862 50.7625C177.79 49.4608 176.131 47.7192 174.884 45.5375C173.656 43.3375 173.042 40.9083 173.042 38.25C173.042 36.2333 173.399 34.3542 174.114 32.6125C174.829 30.8525 175.81 29.3125 177.057 27.9925C178.322 26.6542 179.788 25.6092 181.457 24.8575C183.125 24.1058 184.903 23.73 186.792 23.73C189.028 23.73 191.1 24.2525 193.007 25.2975C194.932 26.3425 196.517 27.745 197.764 29.505L194.327 31.3475C193.373 30.1375 192.227 29.2117 190.889 28.57C189.551 27.91 188.185 27.58 186.792 27.58C184.94 27.58 183.262 28.075 181.759 29.065C180.256 30.0367 179.064 31.3292 178.184 32.9425C177.322 34.5558 176.892 36.325 176.892 38.25C176.892 40.175 177.332 41.9442 178.212 43.5575C179.11 45.1708 180.311 46.4633 181.814 47.435C183.317 48.3883 184.977 48.865 186.792 48.865C188.295 48.865 189.707 48.5167 191.027 47.82C192.347 47.1233 193.447 46.2158 194.327 45.0975ZM223.83 52H219.403L211.703 38.7175L206.203 45.29V52H202.353V10.75H206.203V39.295L218.605 24.5H223.638L214.315 35.5825L223.83 52ZM242.582 52V13.5H255.315C257.973 13.5 260.466 14.0042 262.795 15.0125C265.123 16.0025 267.167 17.3867 268.927 19.165C270.687 20.925 272.062 22.9692 273.052 25.2975C274.061 27.6075 274.565 30.0917 274.565 32.75C274.565 35.4083 274.061 37.9017 273.052 40.23C272.062 42.54 270.687 44.5842 268.927 46.3625C267.167 48.1225 265.123 49.5067 262.795 50.515C260.466 51.505 257.973 52 255.315 52H242.582ZM246.432 48.15H255.315C257.441 48.15 259.431 47.7558 261.282 46.9675C263.152 46.1608 264.793 45.0517 266.205 43.64C267.616 42.2283 268.716 40.5967 269.505 38.745C270.311 36.875 270.715 34.8767 270.715 32.75C270.715 30.6233 270.311 28.6342 269.505 26.7825C268.716 24.9125 267.607 23.2717 266.177 21.86C264.766 20.4483 263.134 19.3483 261.282 18.56C259.431 17.7533 257.441 17.35 255.315 17.35H246.432V48.15ZM291.259 52.715C288.729 52.715 286.419 52.0642 284.329 50.7625C282.258 49.4608 280.599 47.7192 279.352 45.5375C278.124 43.3375 277.509 40.9083 277.509 38.25C277.509 36.2333 277.867 34.3542 278.582 32.6125C279.297 30.8525 280.278 29.3125 281.524 27.9925C282.789 26.6542 284.256 25.6092 285.924 24.8575C287.593 24.1058 289.371 23.73 291.259 23.73C293.294 23.73 295.164 24.1333 296.869 24.94C298.593 25.7467 300.069 26.8742 301.297 28.3225C302.544 29.7708 303.479 31.4667 304.102 33.41C304.744 35.3533 305.009 37.4525 304.899 39.7075H281.579C281.799 41.4492 282.349 43.0075 283.229 44.3825C284.128 45.7575 285.264 46.8483 286.639 47.655C288.033 48.4433 289.573 48.8467 291.259 48.865C293.093 48.865 294.743 48.3883 296.209 47.435C297.694 46.4817 298.886 45.1708 299.784 43.5025L303.689 44.41C302.589 46.8483 300.93 48.8467 298.712 50.405C296.494 51.945 294.009 52.715 291.259 52.715ZM281.469 36.6H301.022C300.894 34.895 300.371 33.3367 299.454 31.925C298.556 30.495 297.392 29.3583 295.962 28.515C294.532 27.6533 292.964 27.2225 291.259 27.2225C289.554 27.2225 287.996 27.6442 286.584 28.4875C285.173 29.3125 284.018 30.44 283.119 31.87C282.221 33.2817 281.671 34.8583 281.469 36.6ZM321.714 52H316.819L306.782 24.4175H310.879L319.267 47.49L327.654 24.4175H331.752L321.714 52ZM347.334 52.715C344.804 52.715 342.494 52.0642 340.404 50.7625C338.332 49.4608 336.673 47.7192 335.426 45.5375C334.198 43.3375 333.584 40.9083 333.584 38.25C333.584 36.2333 333.941 34.3542 334.656 32.6125C335.371 30.8525 336.352 29.3125 337.599 27.9925C338.864 26.6542 340.33 25.6092 341.999 24.8575C343.667 24.1058 345.445 23.73 347.334 23.73C349.369 23.73 351.239 24.1333 352.944 24.94C354.667 25.7467 356.143 26.8742 357.371 28.3225C358.618 29.7708 359.553 31.4667 360.176 33.41C360.818 35.3533 361.084 37.4525 360.974 39.7075H337.654C337.874 41.4492 338.424 43.0075 339.304 44.3825C340.202 45.7575 341.339 46.8483 342.714 47.655C344.107 48.4433 345.647 48.8467 347.334 48.865C349.167 48.865 350.817 48.3883 352.284 47.435C353.769 46.4817 354.96 45.1708 355.859 43.5025L359.764 44.41C358.664 46.8483 357.004 48.8467 354.786 50.405C352.568 51.945 350.084 52.715 347.334 52.715ZM337.544 36.6H357.096C356.968 34.895 356.445 33.3367 355.529 31.925C354.63 30.495 353.466 29.3583 352.036 28.515C350.606 27.6533 349.039 27.2225 347.334 27.2225C345.629 27.2225 344.07 27.6442 342.659 28.4875C341.247 29.3125 340.092 30.44 339.194 31.87C338.295 33.2817 337.745 34.8583 337.544 36.6ZM365.473 52V10.75H369.323V52H365.473ZM387.832 52.715C385.302 52.715 382.992 52.0642 380.902 50.7625C378.83 49.4608 377.171 47.7192 375.924 45.5375C374.696 43.3375 374.082 40.9083 374.082 38.25C374.082 36.2333 374.439 34.3542 375.154 32.6125C375.869 30.8525 376.85 29.3125 378.097 27.9925C379.362 26.6542 380.828 25.6092 382.497 24.8575C384.165 24.1058 385.943 23.73 387.832 23.73C390.362 23.73 392.662 24.3808 394.734 25.6825C396.824 26.9842 398.483 28.735 399.712 30.935C400.958 33.135 401.582 35.5733 401.582 38.25C401.582 40.2483 401.224 42.1183 400.509 43.86C399.794 45.6017 398.804 47.1417 397.539 48.48C396.292 49.8 394.835 50.8358 393.167 51.5875C391.517 52.3392 389.738 52.715 387.832 52.715ZM387.832 48.865C389.702 48.865 391.379 48.3792 392.864 47.4075C394.367 46.4175 395.55 45.1158 396.412 43.5025C397.292 41.8892 397.732 40.1383 397.732 38.25C397.732 36.325 397.292 34.5558 396.412 32.9425C395.532 31.3108 394.34 30.0092 392.837 29.0375C391.352 28.0658 389.683 27.58 387.832 27.58C385.962 27.58 384.275 28.075 382.772 29.065C381.287 30.0367 380.104 31.3292 379.224 32.9425C378.362 34.5558 377.932 36.325 377.932 38.25C377.932 40.23 378.381 42.0267 379.279 43.64C380.177 45.235 381.378 46.5092 382.882 47.4625C384.385 48.3975 386.035 48.865 387.832 48.865ZM410.089 65.75H406.239V24.5H410.089V29.6425C411.043 27.9008 412.344 26.4892 413.994 25.4075C415.644 24.3258 417.606 23.785 419.879 23.785C421.878 23.785 423.748 24.1608 425.489 24.9125C427.249 25.6642 428.789 26.7092 430.109 28.0475C431.429 29.3675 432.465 30.8983 433.217 32.64C433.969 34.3817 434.344 36.2517 434.344 38.25C434.344 40.2483 433.969 42.1275 433.217 43.8875C432.465 45.6475 431.429 47.1967 430.109 48.535C428.789 49.855 427.249 50.8908 425.489 51.6425C423.748 52.3942 421.878 52.77 419.879 52.77C417.606 52.77 415.644 52.2292 413.994 51.1475C412.344 50.0658 411.043 48.6542 410.089 46.9125V65.75ZM419.852 27.525C417.927 27.525 416.249 28.0108 414.819 28.9825C413.408 29.9358 412.317 31.2192 411.547 32.8325C410.777 34.4458 410.392 36.2517 410.392 38.25C410.392 40.2117 410.768 42.0083 411.519 43.64C412.289 45.2717 413.38 46.5733 414.792 47.545C416.222 48.5167 417.909 49.0025 419.852 49.0025C421.759 49.0025 423.509 48.5258 425.104 47.5725C426.718 46.6192 428.01 45.3358 428.982 43.7225C429.954 42.0908 430.439 40.2667 430.439 38.25C430.439 36.2883 429.963 34.5008 429.009 32.8875C428.056 31.2558 426.782 29.9542 425.187 28.9825C423.592 28.0108 421.814 27.525 419.852 27.525ZM450.835 52.715C448.305 52.715 445.995 52.0642 443.905 50.7625C441.833 49.4608 440.174 47.7192 438.927 45.5375C437.699 43.3375 437.085 40.9083 437.085 38.25C437.085 36.2333 437.442 34.3542 438.157 32.6125C438.872 30.8525 439.853 29.3125 441.1 27.9925C442.365 26.6542 443.831 25.6092 445.5 24.8575C447.168 24.1058 448.946 23.73 450.835 23.73C452.87 23.73 454.74 24.1333 456.445 24.94C458.168 25.7467 459.644 26.8742 460.872 28.3225C462.119 29.7708 463.054 31.4667 463.677 33.41C464.319 35.3533 464.585 37.4525 464.475 39.7075H441.155C441.375 41.4492 441.925 43.0075 442.805 44.3825C443.703 45.7575 444.84 46.8483 446.215 47.655C447.608 48.4433 449.148 48.8467 450.835 48.865C452.668 48.865 454.318 48.3883 455.785 47.435C457.27 46.4817 458.461 45.1708 459.36 43.5025L463.265 44.41C462.165 46.8483 460.505 48.8467 458.287 50.405C456.069 51.945 453.585 52.715 450.835 52.715ZM441.045 36.6H460.597C460.469 34.895 459.946 33.3367 459.03 31.925C458.131 30.495 456.967 29.3583 455.537 28.515C454.107 27.6533 452.54 27.2225 450.835 27.2225C449.13 27.2225 447.571 27.6442 446.16 28.4875C444.748 29.3125 443.593 30.44 442.695 31.87C441.796 33.2817 441.246 34.8583 441.045 36.6ZM469.189 52V24.5H473.039V28.295C474.01 26.9017 475.275 25.7925 476.834 24.9675C478.392 24.1425 480.088 23.73 481.921 23.73C482.985 23.73 484.011 23.8675 485.001 24.1425L483.434 27.965C482.664 27.7267 481.912 27.6075 481.179 27.6075C479.694 27.6075 478.328 27.9742 477.081 28.7075C475.853 29.4408 474.872 30.4217 474.139 31.65C473.405 32.8783 473.039 34.2442 473.039 35.7475V52H469.189Z" fill="#28E98C"/>
<path d="M3.3 77V38.5H25.8225V42.35H7.15V54.45H23.1825V58.3H7.15V77H3.3ZM27.7664 66.4675V49.5H31.6164V65.6975C31.6164 67.2008 31.9831 68.5667 32.7164 69.795C33.4497 71.0233 34.4306 72.0042 35.6589 72.7375C36.9056 73.4708 38.2714 73.8375 39.7564 73.8375C41.2597 73.8375 42.6164 73.4708 43.8264 72.7375C45.0547 72.0042 46.0356 71.0233 46.7689 69.795C47.5022 68.5667 47.8689 67.2008 47.8689 65.6975V49.5H51.7189L51.7464 77H47.8964L47.8689 73.15C46.8972 74.5433 45.6322 75.6525 44.0739 76.4775C42.5339 77.3025 40.8472 77.715 39.0139 77.715C36.9422 77.715 35.0539 77.2108 33.3489 76.2025C31.6439 75.1942 30.2872 73.8375 29.2789 72.1325C28.2706 70.4275 27.7664 68.5392 27.7664 66.4675ZM57.6018 77V35.75H61.4518V77H57.6018ZM68.0754 77V35.75H71.9254V77H68.0754ZM105.209 77.715C103.156 77.715 101.167 77.3942 99.2419 76.7525C97.3352 76.1108 95.6669 75.1942 94.2369 74.0025C92.8069 72.8108 91.7986 71.39 91.2119 69.74L94.8144 68.3925C95.2177 69.5292 95.9511 70.51 97.0144 71.335C98.0961 72.1417 99.3519 72.765 100.782 73.205C102.23 73.645 103.706 73.865 105.209 73.865C106.969 73.865 108.61 73.5717 110.132 72.985C111.654 72.3983 112.882 71.5825 113.817 70.5375C114.752 69.4742 115.219 68.2275 115.219 66.7975C115.219 65.3492 114.734 64.1575 113.762 63.2225C112.79 62.2875 111.534 61.5542 109.994 61.0225C108.473 60.4725 106.878 60.0508 105.209 59.7575C102.588 59.2992 100.232 58.6758 98.1419 57.8875C96.0702 57.0992 94.4294 55.99 93.2194 54.56C92.0094 53.1117 91.4044 51.205 91.4044 48.84C91.4044 46.6217 92.0461 44.6967 93.3294 43.065C94.6127 41.4333 96.2994 40.1683 98.3894 39.27C100.498 38.3717 102.771 37.9225 105.209 37.9225C107.208 37.9225 109.16 38.2342 111.067 38.8575C112.974 39.4808 114.651 40.3883 116.099 41.58C117.566 42.7717 118.62 44.2292 119.262 45.9525L115.604 47.2725C115.201 46.1175 114.459 45.1367 113.377 44.33C112.314 43.505 111.067 42.8817 109.637 42.46C108.207 42.02 106.731 41.8 105.209 41.8C103.468 41.7817 101.836 42.075 100.314 42.68C98.8111 43.2667 97.5919 44.0917 96.6569 45.155C95.7219 46.2 95.2544 47.4283 95.2544 48.84C95.2544 50.49 95.6852 51.7642 96.5469 52.6625C97.4269 53.5425 98.6186 54.2025 100.122 54.6425C101.625 55.0825 103.321 55.4767 105.209 55.825C107.666 56.2467 109.949 56.9067 112.057 57.805C114.165 58.685 115.861 59.8675 117.144 61.3525C118.428 62.8192 119.069 64.6342 119.069 66.7975C119.069 68.9975 118.428 70.9225 117.144 72.5725C115.861 74.2042 114.165 75.4692 112.057 76.3675C109.967 77.2658 107.684 77.715 105.209 77.715ZM139.115 53.35H132.543L132.515 77H128.665L128.693 53.35H123.715V49.5H128.693L128.665 40.865H132.515L132.543 49.5H139.115V53.35ZM165.876 49.5H169.726V77H165.876L165.738 71.885C164.84 73.6267 163.584 75.0383 161.971 76.12C160.357 77.1833 158.432 77.715 156.196 77.715C154.179 77.715 152.291 77.3392 150.531 76.5875C148.771 75.8175 147.222 74.7633 145.883 73.425C144.545 72.0867 143.5 70.5375 142.748 68.7775C141.997 67.0175 141.621 65.1292 141.621 63.1125C141.621 61.1325 141.987 59.2717 142.721 57.53C143.472 55.7883 144.499 54.2575 145.801 52.9375C147.121 51.6175 148.642 50.5908 150.366 49.8575C152.107 49.1058 153.968 48.73 155.948 48.73C158.24 48.73 160.238 49.28 161.943 50.38C163.648 51.4617 165.005 52.8825 166.013 54.6425L165.876 49.5ZM156.113 73.975C158.075 73.975 159.762 73.4983 161.173 72.545C162.585 71.5733 163.667 70.2717 164.418 68.64C165.188 67.0083 165.573 65.2117 165.573 63.25C165.573 61.2333 165.188 59.4183 164.418 57.805C163.648 56.1733 162.557 54.8808 161.146 53.9275C159.734 52.9742 158.057 52.4975 156.113 52.4975C154.17 52.4975 152.392 52.9833 150.778 53.955C149.183 54.9083 147.909 56.2008 146.956 57.8325C146.021 59.4642 145.553 61.27 145.553 63.25C145.553 65.2483 146.039 67.0633 147.011 68.695C147.982 70.3083 149.266 71.5917 150.861 72.545C152.474 73.4983 154.225 73.975 156.113 73.975ZM194.327 70.0975L197.764 71.9675C196.517 73.7092 194.932 75.1025 193.007 76.1475C191.1 77.1925 189.028 77.715 186.792 77.715C184.262 77.715 181.952 77.0642 179.862 75.7625C177.79 74.4608 176.131 72.7192 174.884 70.5375C173.656 68.3375 173.042 65.9083 173.042 63.25C173.042 61.2333 173.399 59.3542 174.114 57.6125C174.829 55.8525 175.81 54.3125 177.057 52.9925C178.322 51.6542 179.788 50.6092 181.457 49.8575C183.125 49.1058 184.903 48.73 186.792 48.73C189.028 48.73 191.1 49.2525 193.007 50.2975C194.932 51.3425 196.517 52.745 197.764 54.505L194.327 56.3475C193.373 55.1375 192.227 54.2117 190.889 53.57C189.551 52.91 188.185 52.58 186.792 52.58C184.94 52.58 183.262 53.075 181.759 54.065C180.256 55.0367 179.064 56.3292 178.184 57.9425C177.322 59.5558 176.892 61.325 176.892 63.25C176.892 65.175 177.332 66.9442 178.212 68.5575C179.11 70.1708 180.311 71.4633 181.814 72.435C183.317 73.3883 184.977 73.865 186.792 73.865C188.295 73.865 189.707 73.5167 191.027 72.82C192.347 72.1233 193.447 71.2158 194.327 70.0975ZM223.83 77H219.403L211.703 63.7175L206.203 70.29V77H202.353V35.75H206.203V64.295L218.605 49.5H223.638L214.315 60.5825L223.83 77ZM242.582 77V38.5H255.315C257.973 38.5 260.466 39.0042 262.795 40.0125C265.123 41.0025 267.167 42.3867 268.927 44.165C270.687 45.925 272.062 47.9692 273.052 50.2975C274.061 52.6075 274.565 55.0917 274.565 57.75C274.565 60.4083 274.061 62.9017 273.052 65.23C272.062 67.54 270.687 69.5842 268.927 71.3625C267.167 73.1225 265.123 74.5067 262.795 75.515C260.466 76.505 257.973 77 255.315 77H242.582ZM246.432 73.15H255.315C257.441 73.15 259.431 72.7558 261.282 71.9675C263.152 71.1608 264.793 70.0517 266.205 68.64C267.616 67.2283 268.716 65.5967 269.505 63.745C270.311 61.875 270.715 59.8767 270.715 57.75C270.715 55.6233 270.311 53.6342 269.505 51.7825C268.716 49.9125 267.607 48.2717 266.177 46.86C264.766 45.4483 263.134 44.3483 261.282 43.56C259.431 42.7533 257.441 42.35 255.315 42.35H246.432V73.15ZM291.259 77.715C288.729 77.715 286.419 77.0642 284.329 75.7625C282.258 74.4608 280.599 72.7192 279.352 70.5375C278.124 68.3375 277.509 65.9083 277.509 63.25C277.509 61.2333 277.867 59.3542 278.582 57.6125C279.297 55.8525 280.278 54.3125 281.524 52.9925C282.789 51.6542 284.256 50.6092 285.924 49.8575C287.593 49.1058 289.371 48.73 291.259 48.73C293.294 48.73 295.164 49.1333 296.869 49.94C298.593 50.7467 300.069 51.8742 301.297 53.3225C302.544 54.7708 303.479 56.4667 304.102 58.41C304.744 60.3533 305.009 62.4525 304.899 64.7075H281.579C281.799 66.4492 282.349 68.0075 283.229 69.3825C284.128 70.7575 285.264 71.8483 286.639 72.655C288.033 73.4433 289.573 73.8467 291.259 73.865C293.093 73.865 294.743 73.3883 296.209 72.435C297.694 71.4817 298.886 70.1708 299.784 68.5025L303.689 69.41C302.589 71.8483 300.93 73.8467 298.712 75.405C296.494 76.945 294.009 77.715 291.259 77.715ZM281.469 61.6H301.022C300.894 59.895 300.371 58.3367 299.454 56.925C298.556 55.495 297.392 54.3583 295.962 53.515C294.532 52.6533 292.964 52.2225 291.259 52.2225C289.554 52.2225 287.996 52.6442 286.584 53.4875C285.173 54.3125 284.018 55.44 283.119 56.87C282.221 58.2817 281.671 59.8583 281.469 61.6ZM321.714 77H316.819L306.782 49.4175H310.879L319.267 72.49L327.654 49.4175H331.752L321.714 77ZM347.334 77.715C344.804 77.715 342.494 77.0642 340.404 75.7625C338.332 74.4608 336.673 72.7192 335.426 70.5375C334.198 68.3375 333.584 65.9083 333.584 63.25C333.584 61.2333 333.941 59.3542 334.656 57.6125C335.371 55.8525 336.352 54.3125 337.599 52.9925C338.864 51.6542 340.33 50.6092 341.999 49.8575C343.667 49.1058 345.445 48.73 347.334 48.73C349.369 48.73 351.239 49.1333 352.944 49.94C354.667 50.7467 356.143 51.8742 357.371 53.3225C358.618 54.7708 359.553 56.4667 360.176 58.41C360.818 60.3533 361.084 62.4525 360.974 64.7075H337.654C337.874 66.4492 338.424 68.0075 339.304 69.3825C340.202 70.7575 341.339 71.8483 342.714 72.655C344.107 73.4433 345.647 73.8467 347.334 73.865C349.167 73.865 350.817 73.3883 352.284 72.435C353.769 71.4817 354.96 70.1708 355.859 68.5025L359.764 69.41C358.664 71.8483 357.004 73.8467 354.786 75.405C352.568 76.945 350.084 77.715 347.334 77.715ZM337.544 61.6H357.096C356.968 59.895 356.445 58.3367 355.529 56.925C354.63 55.495 353.466 54.3583 352.036 53.515C350.606 52.6533 349.039 52.2225 347.334 52.2225C345.629 52.2225 344.07 52.6442 342.659 53.4875C341.247 54.3125 340.092 55.44 339.194 56.87C338.295 58.2817 337.745 59.8583 337.544 61.6ZM365.473 77V35.75H369.323V77H365.473ZM387.832 77.715C385.302 77.715 382.992 77.0642 380.902 75.7625C378.83 74.4608 377.171 72.7192 375.924 70.5375C374.696 68.3375 374.082 65.9083 374.082 63.25C374.082 61.2333 374.439 59.3542 375.154 57.6125C375.869 55.8525 376.85 54.3125 378.097 52.9925C379.362 51.6542 380.828 50.6092 382.497 49.8575C384.165 49.1058 385.943 48.73 387.832 48.73C390.362 48.73 392.662 49.3808 394.734 50.6825C396.824 51.9842 398.483 53.735 399.712 55.935C400.958 58.135 401.582 60.5733 401.582 63.25C401.582 65.2483 401.224 67.1183 400.509 68.86C399.794 70.6017 398.804 72.1417 397.539 73.48C396.292 74.8 394.835 75.8358 393.167 76.5875C391.517 77.3392 389.738 77.715 387.832 77.715ZM387.832 73.865C389.702 73.865 391.379 73.3792 392.864 72.4075C394.367 71.4175 395.55 70.1158 396.412 68.5025C397.292 66.8892 397.732 65.1383 397.732 63.25C397.732 61.325 397.292 59.5558 396.412 57.9425C395.532 56.3108 394.34 55.0092 392.837 54.0375C391.352 53.0658 389.683 52.58 387.832 52.58C385.962 52.58 384.275 53.075 382.772 54.065C381.287 55.0367 380.104 56.3292 379.224 57.9425C378.362 59.5558 377.932 61.325 377.932 63.25C377.932 65.23 378.381 67.0267 379.279 68.64C380.177 70.235 381.378 71.5092 382.882 72.4625C384.385 73.3975 386.035 73.865 387.832 73.865ZM410.089 90.75H406.239V49.5H410.089V54.6425C411.043 52.9008 412.344 51.4892 413.994 50.4075C415.644 49.3258 417.606 48.785 419.879 48.785C421.878 48.785 423.748 49.1608 425.489 49.9125C427.249 50.6642 428.789 51.7092 430.109 53.0475C431.429 54.3675 432.465 55.8983 433.217 57.64C433.969 59.3817 434.344 61.2517 434.344 63.25C434.344 65.2483 433.969 67.1275 433.217 68.8875C432.465 70.6475 431.429 72.1967 430.109 73.535C428.789 74.855 427.249 75.8908 425.489 76.6425C423.748 77.3942 421.878 77.77 419.879 77.77C417.606 77.77 415.644 77.2292 413.994 76.1475C412.344 75.0658 411.043 73.6542 410.089 71.9125V90.75ZM419.852 52.525C417.927 52.525 416.249 53.0108 414.819 53.9825C413.408 54.9358 412.317 56.2192 411.547 57.8325C410.777 59.4458 410.392 61.2517 410.392 63.25C410.392 65.2117 410.768 67.0083 411.519 68.64C412.289 70.2717 413.38 71.5733 414.792 72.545C416.222 73.5167 417.909 74.0025 419.852 74.0025C421.759 74.0025 423.509 73.5258 425.104 72.5725C426.718 71.6192 428.01 70.3358 428.982 68.7225C429.954 67.0908 430.439 65.2667 430.439 63.25C430.439 61.2883 429.963 59.5008 429.009 57.8875C428.056 56.2558 426.782 54.9542 425.187 53.9825C423.592 53.0108 421.814 52.525 419.852 52.525ZM450.835 77.715C448.305 77.715 445.995 77.0642 443.905 75.7625C441.833 74.4608 440.174 72.7192 438.927 70.5375C437.699 68.3375 437.085 65.9083 437.085 63.25C437.085 61.2333 437.442 59.3542 438.157 57.6125C438.872 55.8525 439.853 54.3125 441.1 52.9925C442.365 51.6542 443.831 50.6092 445.5 49.8575C447.168 49.1058 448.946 48.73 450.835 48.73C452.87 48.73 454.74 49.1333 456.445 49.94C458.168 50.7467 459.644 51.8742 460.872 53.3225C462.119 54.7708 463.054 56.4667 463.677 58.41C464.319 60.3533 464.585 62.4525 464.475 64.7075H441.155C441.375 66.4492 441.925 68.0075 442.805 69.3825C443.703 70.7575 444.84 71.8483 446.215 72.655C447.608 73.4433 449.148 73.8467 450.835 73.865C452.668 73.865 454.318 73.3883 455.785 72.435C457.27 71.4817 458.461 70.1708 459.36 68.5025L463.265 69.41C462.165 71.8483 460.505 73.8467 458.287 75.405C456.069 76.945 453.585 77.715 450.835 77.715ZM441.045 61.6H460.597C460.469 59.895 459.946 58.3367 459.03 56.925C458.131 55.495 456.967 54.3583 455.537 53.515C454.107 52.6533 452.54 52.2225 450.835 52.2225C449.13 52.2225 447.571 52.6442 446.16 53.4875C444.748 54.3125 443.593 55.44 442.695 56.87C441.796 58.2817 441.246 59.8583 441.045 61.6ZM469.189 77V49.5H473.039V53.295C474.01 51.9017 475.275 50.7925 476.834 49.9675C478.392 49.1425 480.088 48.73 481.921 48.73C482.985 48.73 484.011 48.8675 485.001 49.1425L483.434 52.965C482.664 52.7267 481.912 52.6075 481.179 52.6075C479.694 52.6075 478.328 52.9742 477.081 53.7075C475.853 54.4408 474.872 55.4217 474.139 56.65C473.405 57.8783 473.039 59.2442 473.039 60.7475V77H469.189Z" fill="#28E98C" fill-opacity="0.3"/>
<path d="M3.3 99V60.5H25.8225V64.35H7.15V76.45H23.1825V80.3H7.15V99H3.3ZM27.7664 88.4675V71.5H31.6164V87.6975C31.6164 89.2008 31.9831 90.5667 32.7164 91.795C33.4497 93.0233 34.4306 94.0042 35.6589 94.7375C36.9056 95.4708 38.2714 95.8375 39.7564 95.8375C41.2597 95.8375 42.6164 95.4708 43.8264 94.7375C45.0547 94.0042 46.0356 93.0233 46.7689 91.795C47.5022 90.5667 47.8689 89.2008 47.8689 87.6975V71.5H51.7189L51.7464 99H47.8964L47.8689 95.15C46.8972 96.5433 45.6322 97.6525 44.0739 98.4775C42.5339 99.3025 40.8472 99.715 39.0139 99.715C36.9422 99.715 35.0539 99.2108 33.3489 98.2025C31.6439 97.1942 30.2872 95.8375 29.2789 94.1325C28.2706 92.4275 27.7664 90.5392 27.7664 88.4675ZM57.6018 99V57.75H61.4518V99H57.6018ZM68.0754 99V57.75H71.9254V99H68.0754ZM105.209 99.715C103.156 99.715 101.167 99.3942 99.2419 98.7525C97.3352 98.1108 95.6669 97.1942 94.2369 96.0025C92.8069 94.8108 91.7986 93.39 91.2119 91.74L94.8144 90.3925C95.2177 91.5292 95.9511 92.51 97.0144 93.335C98.0961 94.1417 99.3519 94.765 100.782 95.205C102.23 95.645 103.706 95.865 105.209 95.865C106.969 95.865 108.61 95.5717 110.132 94.985C111.654 94.3983 112.882 93.5825 113.817 92.5375C114.752 91.4742 115.219 90.2275 115.219 88.7975C115.219 87.3492 114.734 86.1575 113.762 85.2225C112.79 84.2875 111.534 83.5542 109.994 83.0225C108.473 82.4725 106.878 82.0508 105.209 81.7575C102.588 81.2992 100.232 80.6758 98.1419 79.8875C96.0702 79.0992 94.4294 77.99 93.2194 76.56C92.0094 75.1117 91.4044 73.205 91.4044 70.84C91.4044 68.6217 92.0461 66.6967 93.3294 65.065C94.6127 63.4333 96.2994 62.1683 98.3894 61.27C100.498 60.3717 102.771 59.9225 105.209 59.9225C107.208 59.9225 109.16 60.2342 111.067 60.8575C112.974 61.4808 114.651 62.3883 116.099 63.58C117.566 64.7717 118.62 66.2292 119.262 67.9525L115.604 69.2725C115.201 68.1175 114.459 67.1367 113.377 66.33C112.314 65.505 111.067 64.8817 109.637 64.46C108.207 64.02 106.731 63.8 105.209 63.8C103.468 63.7817 101.836 64.075 100.314 64.68C98.8111 65.2667 97.5919 66.0917 96.6569 67.155C95.7219 68.2 95.2544 69.4283 95.2544 70.84C95.2544 72.49 95.6852 73.7642 96.5469 74.6625C97.4269 75.5425 98.6186 76.2025 100.122 76.6425C101.625 77.0825 103.321 77.4767 105.209 77.825C107.666 78.2467 109.949 78.9067 112.057 79.805C114.165 80.685 115.861 81.8675 117.144 83.3525C118.428 84.8192 119.069 86.6342 119.069 88.7975C119.069 90.9975 118.428 92.9225 117.144 94.5725C115.861 96.2042 114.165 97.4692 112.057 98.3675C109.967 99.2658 107.684 99.715 105.209 99.715ZM139.115 75.35H132.543L132.515 99H128.665L128.693 75.35H123.715V71.5H128.693L128.665 62.865H132.515L132.543 71.5H139.115V75.35ZM165.876 71.5H169.726V99H165.876L165.738 93.885C164.84 95.6267 163.584 97.0383 161.971 98.12C160.357 99.1833 158.432 99.715 156.196 99.715C154.179 99.715 152.291 99.3392 150.531 98.5875C148.771 97.8175 147.222 96.7633 145.883 95.425C144.545 94.0867 143.5 92.5375 142.748 90.7775C141.997 89.0175 141.621 87.1292 141.621 85.1125C141.621 83.1325 141.987 81.2717 142.721 79.53C143.472 77.7883 144.499 76.2575 145.801 74.9375C147.121 73.6175 148.642 72.5908 150.366 71.8575C152.107 71.1058 153.968 70.73 155.948 70.73C158.24 70.73 160.238 71.28 161.943 72.38C163.648 73.4617 165.005 74.8825 166.013 76.6425L165.876 71.5ZM156.113 95.975C158.075 95.975 159.762 95.4983 161.173 94.545C162.585 93.5733 163.667 92.2717 164.418 90.64C165.188 89.0083 165.573 87.2117 165.573 85.25C165.573 83.2333 165.188 81.4183 164.418 79.805C163.648 78.1733 162.557 76.8808 161.146 75.9275C159.734 74.9742 158.057 74.4975 156.113 74.4975C154.17 74.4975 152.392 74.9833 150.778 75.955C149.183 76.9083 147.909 78.2008 146.956 79.8325C146.021 81.4642 145.553 83.27 145.553 85.25C145.553 87.2483 146.039 89.0633 147.011 90.695C147.982 92.3083 149.266 93.5917 150.861 94.545C152.474 95.4983 154.225 95.975 156.113 95.975ZM194.327 92.0975L197.764 93.9675C196.517 95.7092 194.932 97.1025 193.007 98.1475C191.1 99.1925 189.028 99.715 186.792 99.715C184.262 99.715 181.952 99.0642 179.862 97.7625C177.79 96.4608 176.131 94.7192 174.884 92.5375C173.656 90.3375 173.042 87.9083 173.042 85.25C173.042 83.2333 173.399 81.3542 174.114 79.6125C174.829 77.8525 175.81 76.3125 177.057 74.9925C178.322 73.6542 179.788 72.6092 181.457 71.8575C183.125 71.1058 184.903 70.73 186.792 70.73C189.028 70.73 191.1 71.2525 193.007 72.2975C194.932 73.3425 196.517 74.745 197.764 76.505L194.327 78.3475C193.373 77.1375 192.227 76.2117 190.889 75.57C189.551 74.91 188.185 74.58 186.792 74.58C184.94 74.58 183.262 75.075 181.759 76.065C180.256 77.0367 179.064 78.3292 178.184 79.9425C177.322 81.5558 176.892 83.325 176.892 85.25C176.892 87.175 177.332 88.9442 178.212 90.5575C179.11 92.1708 180.311 93.4633 181.814 94.435C183.317 95.3883 184.977 95.865 186.792 95.865C188.295 95.865 189.707 95.5167 191.027 94.82C192.347 94.1233 193.447 93.2158 194.327 92.0975ZM223.83 99H219.403L211.703 85.7175L206.203 92.29V99H202.353V57.75H206.203V86.295L218.605 71.5H223.638L214.315 82.5825L223.83 99ZM242.582 99V60.5H255.315C257.973 60.5 260.466 61.0042 262.795 62.0125C265.123 63.0025 267.167 64.3867 268.927 66.165C270.687 67.925 272.062 69.9692 273.052 72.2975C274.061 74.6075 274.565 77.0917 274.565 79.75C274.565 82.4083 274.061 84.9017 273.052 87.23C272.062 89.54 270.687 91.5842 268.927 93.3625C267.167 95.1225 265.123 96.5067 262.795 97.515C260.466 98.505 257.973 99 255.315 99H242.582ZM246.432 95.15H255.315C257.441 95.15 259.431 94.7558 261.282 93.9675C263.152 93.1608 264.793 92.0517 266.205 90.64C267.616 89.2283 268.716 87.5967 269.505 85.745C270.311 83.875 270.715 81.8767 270.715 79.75C270.715 77.6233 270.311 75.6342 269.505 73.7825C268.716 71.9125 267.607 70.2717 266.177 68.86C264.766 67.4483 263.134 66.3483 261.282 65.56C259.431 64.7533 257.441 64.35 255.315 64.35H246.432V95.15ZM291.259 99.715C288.729 99.715 286.419 99.0642 284.329 97.7625C282.258 96.4608 280.599 94.7192 279.352 92.5375C278.124 90.3375 277.509 87.9083 277.509 85.25C277.509 83.2333 277.867 81.3542 278.582 79.6125C279.297 77.8525 280.278 76.3125 281.524 74.9925C282.789 73.6542 284.256 72.6092 285.924 71.8575C287.593 71.1058 289.371 70.73 291.259 70.73C293.294 70.73 295.164 71.1333 296.869 71.94C298.593 72.7467 300.069 73.8742 301.297 75.3225C302.544 76.7708 303.479 78.4667 304.102 80.41C304.744 82.3533 305.009 84.4525 304.899 86.7075H281.579C281.799 88.4492 282.349 90.0075 283.229 91.3825C284.128 92.7575 285.264 93.8483 286.639 94.655C288.033 95.4433 289.573 95.8467 291.259 95.865C293.093 95.865 294.743 95.3883 296.209 94.435C297.694 93.4817 298.886 92.1708 299.784 90.5025L303.689 91.41C302.589 93.8483 300.93 95.8467 298.712 97.405C296.494 98.945 294.009 99.715 291.259 99.715ZM281.469 83.6H301.022C300.894 81.895 300.371 80.3367 299.454 78.925C298.556 77.495 297.392 76.3583 295.962 75.515C294.532 74.6533 292.964 74.2225 291.259 74.2225C289.554 74.2225 287.996 74.6442 286.584 75.4875C285.173 76.3125 284.018 77.44 283.119 78.87C282.221 80.2817 281.671 81.8583 281.469 83.6ZM321.714 99H316.819L306.782 71.4175H310.879L319.267 94.49L327.654 71.4175H331.752L321.714 99ZM347.334 99.715C344.804 99.715 342.494 99.0642 340.404 97.7625C338.332 96.4608 336.673 94.7192 335.426 92.5375C334.198 90.3375 333.584 87.9083 333.584 85.25C333.584 83.2333 333.941 81.3542 334.656 79.6125C335.371 77.8525 336.352 76.3125 337.599 74.9925C338.864 73.6542 340.33 72.6092 341.999 71.8575C343.667 71.1058 345.445 70.73 347.334 70.73C349.369 70.73 351.239 71.1333 352.944 71.94C354.667 72.7467 356.143 73.8742 357.371 75.3225C358.618 76.7708 359.553 78.4667 360.176 80.41C360.818 82.3533 361.084 84.4525 360.974 86.7075H337.654C337.874 88.4492 338.424 90.0075 339.304 91.3825C340.202 92.7575 341.339 93.8483 342.714 94.655C344.107 95.4433 345.647 95.8467 347.334 95.865C349.167 95.865 350.817 95.3883 352.284 94.435C353.769 93.4817 354.96 92.1708 355.859 90.5025L359.764 91.41C358.664 93.8483 357.004 95.8467 354.786 97.405C352.568 98.945 350.084 99.715 347.334 99.715ZM337.544 83.6H357.096C356.968 81.895 356.445 80.3367 355.529 78.925C354.63 77.495 353.466 76.3583 352.036 75.515C350.606 74.6533 349.039 74.2225 347.334 74.2225C345.629 74.2225 344.07 74.6442 342.659 75.4875C341.247 76.3125 340.092 77.44 339.194 78.87C338.295 80.2817 337.745 81.8583 337.544 83.6ZM365.473 99V57.75H369.323V99H365.473ZM387.832 99.715C385.302 99.715 382.992 99.0642 380.902 97.7625C378.83 96.4608 377.171 94.7192 375.924 92.5375C374.696 90.3375 374.082 87.9083 374.082 85.25C374.082 83.2333 374.439 81.3542 375.154 79.6125C375.869 77.8525 376.85 76.3125 378.097 74.9925C379.362 73.6542 380.828 72.6092 382.497 71.8575C384.165 71.1058 385.943 70.73 387.832 70.73C390.362 70.73 392.662 71.3808 394.734 72.6825C396.824 73.9842 398.483 75.735 399.712 77.935C400.958 80.135 401.582 82.5733 401.582 85.25C401.582 87.2483 401.224 89.1183 400.509 90.86C399.794 92.6017 398.804 94.1417 397.539 95.48C396.292 96.8 394.835 97.8358 393.167 98.5875C391.517 99.3392 389.738 99.715 387.832 99.715ZM387.832 95.865C389.702 95.865 391.379 95.3792 392.864 94.4075C394.367 93.4175 395.55 92.1158 396.412 90.5025C397.292 88.8892 397.732 87.1383 397.732 85.25C397.732 83.325 397.292 81.5558 396.412 79.9425C395.532 78.3108 394.34 77.0092 392.837 76.0375C391.352 75.0658 389.683 74.58 387.832 74.58C385.962 74.58 384.275 75.075 382.772 76.065C381.287 77.0367 380.104 78.3292 379.224 79.9425C378.362 81.5558 377.932 83.325 377.932 85.25C377.932 87.23 378.381 89.0267 379.279 90.64C380.177 92.235 381.378 93.5092 382.882 94.4625C384.385 95.3975 386.035 95.865 387.832 95.865ZM410.089 112.75H406.239V71.5H410.089V76.6425C411.043 74.9008 412.344 73.4892 413.994 72.4075C415.644 71.3258 417.606 70.785 419.879 70.785C421.878 70.785 423.748 71.1608 425.489 71.9125C427.249 72.6642 428.789 73.7092 430.109 75.0475C431.429 76.3675 432.465 77.8983 433.217 79.64C433.969 81.3817 434.344 83.2517 434.344 85.25C434.344 87.2483 433.969 89.1275 433.217 90.8875C432.465 92.6475 431.429 94.1967 430.109 95.535C428.789 96.855 427.249 97.8908 425.489 98.6425C423.748 99.3942 421.878 99.77 419.879 99.77C417.606 99.77 415.644 99.2292 413.994 98.1475C412.344 97.0658 411.043 95.6542 410.089 93.9125V112.75ZM419.852 74.525C417.927 74.525 416.249 75.0108 414.819 75.9825C413.408 76.9358 412.317 78.2192 411.547 79.8325C410.777 81.4458 410.392 83.2517 410.392 85.25C410.392 87.2117 410.768 89.0083 411.519 90.64C412.289 92.2717 413.38 93.5733 414.792 94.545C416.222 95.5167 417.909 96.0025 419.852 96.0025C421.759 96.0025 423.509 95.5258 425.104 94.5725C426.718 93.6192 428.01 92.3358 428.982 90.7225C429.954 89.0908 430.439 87.2667 430.439 85.25C430.439 83.2883 429.963 81.5008 429.009 79.8875C428.056 78.2558 426.782 76.9542 425.187 75.9825C423.592 75.0108 421.814 74.525 419.852 74.525ZM450.835 99.715C448.305 99.715 445.995 99.0642 443.905 97.7625C441.833 96.4608 440.174 94.7192 438.927 92.5375C437.699 90.3375 437.085 87.9083 437.085 85.25C437.085 83.2333 437.442 81.3542 438.157 79.6125C438.872 77.8525 439.853 76.3125 441.1 74.9925C442.365 73.6542 443.831 72.6092 445.5 71.8575C447.168 71.1058 448.946 70.73 450.835 70.73C452.87 70.73 454.74 71.1333 456.445 71.94C458.168 72.7467 459.644 73.8742 460.872 75.3225C462.119 76.7708 463.054 78.4667 463.677 80.41C464.319 82.3533 464.585 84.4525 464.475 86.7075H441.155C441.375 88.4492 441.925 90.0075 442.805 91.3825C443.703 92.7575 444.84 93.8483 446.215 94.655C447.608 95.4433 449.148 95.8467 450.835 95.865C452.668 95.865 454.318 95.3883 455.785 94.435C457.27 93.4817 458.461 92.1708 459.36 90.5025L463.265 91.41C462.165 93.8483 460.505 95.8467 458.287 97.405C456.069 98.945 453.585 99.715 450.835 99.715ZM441.045 83.6H460.597C460.469 81.895 459.946 80.3367 459.03 78.925C458.131 77.495 456.967 76.3583 455.537 75.515C454.107 74.6533 452.54 74.2225 450.835 74.2225C449.13 74.2225 447.571 74.6442 446.16 75.4875C444.748 76.3125 443.593 77.44 442.695 78.87C441.796 80.2817 441.246 81.8583 441.045 83.6ZM469.189 99V71.5H473.039V75.295C474.01 73.9017 475.275 72.7925 476.834 71.9675C478.392 71.1425 480.088 70.73 481.921 70.73C482.985 70.73 484.011 70.8675 485.001 71.1425L483.434 74.965C482.664 74.7267 481.912 74.6075 481.179 74.6075C479.694 74.6075 478.328 74.9742 477.081 75.7075C475.853 76.4408 474.872 77.4217 474.139 78.65C473.405 79.8783 473.039 81.2442 473.039 82.7475V99H469.189Z" fill="#28E98C" fill-opacity="0.25"/>
<path d="M3.3 120V81.5H25.8225V85.35H7.15V97.45H23.1825V101.3H7.15V120H3.3ZM27.7664 109.467V92.5H31.6164V108.697C31.6164 110.201 31.9831 111.567 32.7164 112.795C33.4497 114.023 34.4306 115.004 35.6589 115.737C36.9056 116.471 38.2714 116.837 39.7564 116.837C41.2597 116.837 42.6164 116.471 43.8264 115.737C45.0547 115.004 46.0356 114.023 46.7689 112.795C47.5022 111.567 47.8689 110.201 47.8689 108.697V92.5H51.7189L51.7464 120H47.8964L47.8689 116.15C46.8972 117.543 45.6322 118.652 44.0739 119.477C42.5339 120.302 40.8472 120.715 39.0139 120.715C36.9422 120.715 35.0539 120.211 33.3489 119.202C31.6439 118.194 30.2872 116.837 29.2789 115.132C28.2706 113.427 27.7664 111.539 27.7664 109.467ZM57.6018 120V78.75H61.4518V120H57.6018ZM68.0754 120V78.75H71.9254V120H68.0754ZM105.209 120.715C103.156 120.715 101.167 120.394 99.2419 119.752C97.3352 119.111 95.6669 118.194 94.2369 117.002C92.8069 115.811 91.7986 114.39 91.2119 112.74L94.8144 111.392C95.2177 112.529 95.9511 113.51 97.0144 114.335C98.0961 115.142 99.3519 115.765 100.782 116.205C102.23 116.645 103.706 116.865 105.209 116.865C106.969 116.865 108.61 116.572 110.132 115.985C111.654 115.398 112.882 114.582 113.817 113.537C114.752 112.474 115.219 111.227 115.219 109.797C115.219 108.349 114.734 107.157 113.762 106.222C112.79 105.287 111.534 104.554 109.994 104.022C108.473 103.472 106.878 103.051 105.209 102.757C102.588 102.299 100.232 101.676 98.1419 100.887C96.0702 100.099 94.4294 98.99 93.2194 97.56C92.0094 96.1117 91.4044 94.205 91.4044 91.84C91.4044 89.6217 92.0461 87.6967 93.3294 86.065C94.6127 84.4333 96.2994 83.1683 98.3894 82.27C100.498 81.3717 102.771 80.9225 105.209 80.9225C107.208 80.9225 109.16 81.2342 111.067 81.8575C112.974 82.4808 114.651 83.3883 116.099 84.58C117.566 85.7717 118.62 87.2292 119.262 88.9525L115.604 90.2725C115.201 89.1175 114.459 88.1367 113.377 87.33C112.314 86.505 111.067 85.8817 109.637 85.46C108.207 85.02 106.731 84.8 105.209 84.8C103.468 84.7817 101.836 85.075 100.314 85.68C98.8111 86.2667 97.5919 87.0917 96.6569 88.155C95.7219 89.2 95.2544 90.4283 95.2544 91.84C95.2544 93.49 95.6852 94.7642 96.5469 95.6625C97.4269 96.5425 98.6186 97.2025 100.122 97.6425C101.625 98.0825 103.321 98.4767 105.209 98.825C107.666 99.2467 109.949 99.9067 112.057 100.805C114.165 101.685 115.861 102.867 117.144 104.352C118.428 105.819 119.069 107.634 119.069 109.797C119.069 111.997 118.428 113.922 117.144 115.572C115.861 117.204 114.165 118.469 112.057 119.367C109.967 120.266 107.684 120.715 105.209 120.715ZM139.115 96.35H132.543L132.515 120H128.665L128.693 96.35H123.715V92.5H128.693L128.665 83.865H132.515L132.543 92.5H139.115V96.35ZM165.876 92.5H169.726V120H165.876L165.738 114.885C164.84 116.627 163.584 118.038 161.971 119.12C160.357 120.183 158.432 120.715 156.196 120.715C154.179 120.715 152.291 120.339 150.531 119.587C148.771 118.817 147.222 117.763 145.883 116.425C144.545 115.087 143.5 113.537 142.748 111.777C141.997 110.017 141.621 108.129 141.621 106.113C141.621 104.132 141.987 102.272 142.721 100.53C143.472 98.7883 144.499 97.2575 145.801 95.9375C147.121 94.6175 148.642 93.5908 150.366 92.8575C152.107 92.1058 153.968 91.73 155.948 91.73C158.24 91.73 160.238 92.28 161.943 93.38C163.648 94.4617 165.005 95.8825 166.013 97.6425L165.876 92.5ZM156.113 116.975C158.075 116.975 159.762 116.498 161.173 115.545C162.585 114.573 163.667 113.272 164.418 111.64C165.188 110.008 165.573 108.212 165.573 106.25C165.573 104.233 165.188 102.418 164.418 100.805C163.648 99.1733 162.557 97.8808 161.146 96.9275C159.734 95.9742 158.057 95.4975 156.113 95.4975C154.17 95.4975 152.392 95.9833 150.778 96.955C149.183 97.9083 147.909 99.2008 146.956 100.832C146.021 102.464 145.553 104.27 145.553 106.25C145.553 108.248 146.039 110.063 147.011 111.695C147.982 113.308 149.266 114.592 150.861 115.545C152.474 116.498 154.225 116.975 156.113 116.975ZM194.327 113.097L197.764 114.967C196.517 116.709 194.932 118.102 193.007 119.147C191.1 120.192 189.028 120.715 186.792 120.715C184.262 120.715 181.952 120.064 179.862 118.762C177.79 117.461 176.131 115.719 174.884 113.537C173.656 111.337 173.042 108.908 173.042 106.25C173.042 104.233 173.399 102.354 174.114 100.612C174.829 98.8525 175.81 97.3125 177.057 95.9925C178.322 94.6542 179.788 93.6092 181.457 92.8575C183.125 92.1058 184.903 91.73 186.792 91.73C189.028 91.73 191.1 92.2525 193.007 93.2975C194.932 94.3425 196.517 95.745 197.764 97.505L194.327 99.3475C193.373 98.1375 192.227 97.2117 190.889 96.57C189.551 95.91 188.185 95.58 186.792 95.58C184.94 95.58 183.262 96.075 181.759 97.065C180.256 98.0367 179.064 99.3292 178.184 100.942C177.322 102.556 176.892 104.325 176.892 106.25C176.892 108.175 177.332 109.944 178.212 111.557C179.11 113.171 180.311 114.463 181.814 115.435C183.317 116.388 184.977 116.865 186.792 116.865C188.295 116.865 189.707 116.517 191.027 115.82C192.347 115.123 193.447 114.216 194.327 113.097ZM223.83 120H219.403L211.703 106.717L206.203 113.29V120H202.353V78.75H206.203V107.295L218.605 92.5H223.638L214.315 103.582L223.83 120ZM242.582 120V81.5H255.315C257.973 81.5 260.466 82.0042 262.795 83.0125C265.123 84.0025 267.167 85.3867 268.927 87.165C270.687 88.925 272.062 90.9692 273.052 93.2975C274.061 95.6075 274.565 98.0917 274.565 100.75C274.565 103.408 274.061 105.902 273.052 108.23C272.062 110.54 270.687 112.584 268.927 114.362C267.167 116.122 265.123 117.507 262.795 118.515C260.466 119.505 257.973 120 255.315 120H242.582ZM246.432 116.15H255.315C257.441 116.15 259.431 115.756 261.282 114.967C263.152 114.161 264.793 113.052 266.205 111.64C267.616 110.228 268.716 108.597 269.505 106.745C270.311 104.875 270.715 102.877 270.715 100.75C270.715 98.6233 270.311 96.6342 269.505 94.7825C268.716 92.9125 267.607 91.2717 266.177 89.86C264.766 88.4483 263.134 87.3483 261.282 86.56C259.431 85.7533 257.441 85.35 255.315 85.35H246.432V116.15ZM291.259 120.715C288.729 120.715 286.419 120.064 284.329 118.762C282.258 117.461 280.599 115.719 279.352 113.537C278.124 111.337 277.509 108.908 277.509 106.25C277.509 104.233 277.867 102.354 278.582 100.612C279.297 98.8525 280.278 97.3125 281.524 95.9925C282.789 94.6542 284.256 93.6092 285.924 92.8575C287.593 92.1058 289.371 91.73 291.259 91.73C293.294 91.73 295.164 92.1333 296.869 92.94C298.593 93.7467 300.069 94.8742 301.297 96.3225C302.544 97.7708 303.479 99.4667 304.102 101.41C304.744 103.353 305.009 105.452 304.899 107.707H281.579C281.799 109.449 282.349 111.007 283.229 112.382C284.128 113.757 285.264 114.848 286.639 115.655C288.033 116.443 289.573 116.847 291.259 116.865C293.093 116.865 294.743 116.388 296.209 115.435C297.694 114.482 298.886 113.171 299.784 111.502L303.689 112.41C302.589 114.848 300.93 116.847 298.712 118.405C296.494 119.945 294.009 120.715 291.259 120.715ZM281.469 104.6H301.022C300.894 102.895 300.371 101.337 299.454 99.925C298.556 98.495 297.392 97.3583 295.962 96.515C294.532 95.6533 292.964 95.2225 291.259 95.2225C289.554 95.2225 287.996 95.6442 286.584 96.4875C285.173 97.3125 284.018 98.44 283.119 99.87C282.221 101.282 281.671 102.858 281.469 104.6ZM321.714 120H316.819L306.782 92.4175H310.879L319.267 115.49L327.654 92.4175H331.752L321.714 120ZM347.334 120.715C344.804 120.715 342.494 120.064 340.404 118.762C338.332 117.461 336.673 115.719 335.426 113.537C334.198 111.337 333.584 108.908 333.584 106.25C333.584 104.233 333.941 102.354 334.656 100.612C335.371 98.8525 336.352 97.3125 337.599 95.9925C338.864 94.6542 340.33 93.6092 341.999 92.8575C343.667 92.1058 345.445 91.73 347.334 91.73C349.369 91.73 351.239 92.1333 352.944 92.94C354.667 93.7467 356.143 94.8742 357.371 96.3225C358.618 97.7708 359.553 99.4667 360.176 101.41C360.818 103.353 361.084 105.452 360.974 107.707H337.654C337.874 109.449 338.424 111.007 339.304 112.382C340.202 113.757 341.339 114.848 342.714 115.655C344.107 116.443 345.647 116.847 347.334 116.865C349.167 116.865 350.817 116.388 352.284 115.435C353.769 114.482 354.96 113.171 355.859 111.502L359.764 112.41C358.664 114.848 357.004 116.847 354.786 118.405C352.568 119.945 350.084 120.715 347.334 120.715ZM337.544 104.6H357.096C356.968 102.895 356.445 101.337 355.529 99.925C354.63 98.495 353.466 97.3583 352.036 96.515C350.606 95.6533 349.039 95.2225 347.334 95.2225C345.629 95.2225 344.07 95.6442 342.659 96.4875C341.247 97.3125 340.092 98.44 339.194 99.87C338.295 101.282 337.745 102.858 337.544 104.6ZM365.473 120V78.75H369.323V120H365.473ZM387.832 120.715C385.302 120.715 382.992 120.064 380.902 118.762C378.83 117.461 377.171 115.719 375.924 113.537C374.696 111.337 374.082 108.908 374.082 106.25C374.082 104.233 374.439 102.354 375.154 100.612C375.869 98.8525 376.85 97.3125 378.097 95.9925C379.362 94.6542 380.828 93.6092 382.497 92.8575C384.165 92.1058 385.943 91.73 387.832 91.73C390.362 91.73 392.662 92.3808 394.734 93.6825C396.824 94.9842 398.483 96.735 399.712 98.935C400.958 101.135 401.582 103.573 401.582 106.25C401.582 108.248 401.224 110.118 400.509 111.86C399.794 113.602 398.804 115.142 397.539 116.48C396.292 117.8 394.835 118.836 393.167 119.587C391.517 120.339 389.738 120.715 387.832 120.715ZM387.832 116.865C389.702 116.865 391.379 116.379 392.864 115.407C394.367 114.417 395.55 113.116 396.412 111.502C397.292 109.889 397.732 108.138 397.732 106.25C397.732 104.325 397.292 102.556 396.412 100.942C395.532 99.3108 394.34 98.0092 392.837 97.0375C391.352 96.0658 389.683 95.58 387.832 95.58C385.962 95.58 384.275 96.075 382.772 97.065C381.287 98.0367 380.104 99.3292 379.224 100.942C378.362 102.556 377.932 104.325 377.932 106.25C377.932 108.23 378.381 110.027 379.279 111.64C380.177 113.235 381.378 114.509 382.882 115.462C384.385 116.397 386.035 116.865 387.832 116.865ZM410.089 133.75H406.239V92.5H410.089V97.6425C411.043 95.9008 412.344 94.4892 413.994 93.4075C415.644 92.3258 417.606 91.785 419.879 91.785C421.878 91.785 423.748 92.1608 425.489 92.9125C427.249 93.6642 428.789 94.7092 430.109 96.0475C431.429 97.3675 432.465 98.8983 433.217 100.64C433.969 102.382 434.344 104.252 434.344 106.25C434.344 108.248 433.969 110.127 433.217 111.887C432.465 113.647 431.429 115.197 430.109 116.535C428.789 117.855 427.249 118.891 425.489 119.642C423.748 120.394 421.878 120.77 419.879 120.77C417.606 120.77 415.644 120.229 413.994 119.147C412.344 118.066 411.043 116.654 410.089 114.912V133.75ZM419.852 95.525C417.927 95.525 416.249 96.0108 414.819 96.9825C413.408 97.9358 412.317 99.2192 411.547 100.832C410.777 102.446 410.392 104.252 410.392 106.25C410.392 108.212 410.768 110.008 411.519 111.64C412.289 113.272 413.38 114.573 414.792 115.545C416.222 116.517 417.909 117.002 419.852 117.002C421.759 117.002 423.509 116.526 425.104 115.572C426.718 114.619 428.01 113.336 428.982 111.722C429.954 110.091 430.439 108.267 430.439 106.25C430.439 104.288 429.963 102.501 429.009 100.887C428.056 99.2558 426.782 97.9542 425.187 96.9825C423.592 96.0108 421.814 95.525 419.852 95.525ZM450.835 120.715C448.305 120.715 445.995 120.064 443.905 118.762C441.833 117.461 440.174 115.719 438.927 113.537C437.699 111.337 437.085 108.908 437.085 106.25C437.085 104.233 437.442 102.354 438.157 100.612C438.872 98.8525 439.853 97.3125 441.1 95.9925C442.365 94.6542 443.831 93.6092 445.5 92.8575C447.168 92.1058 448.946 91.73 450.835 91.73C452.87 91.73 454.74 92.1333 456.445 92.94C458.168 93.7467 459.644 94.8742 460.872 96.3225C462.119 97.7708 463.054 99.4667 463.677 101.41C464.319 103.353 464.585 105.452 464.475 107.707H441.155C441.375 109.449 441.925 111.007 442.805 112.382C443.703 113.757 444.84 114.848 446.215 115.655C447.608 116.443 449.148 116.847 450.835 116.865C452.668 116.865 454.318 116.388 455.785 115.435C457.27 114.482 458.461 113.171 459.36 111.502L463.265 112.41C462.165 114.848 460.505 116.847 458.287 118.405C456.069 119.945 453.585 120.715 450.835 120.715ZM441.045 104.6H460.597C460.469 102.895 459.946 101.337 459.03 99.925C458.131 98.495 456.967 97.3583 455.537 96.515C454.107 95.6533 452.54 95.2225 450.835 95.2225C449.13 95.2225 447.571 95.6442 446.16 96.4875C444.748 97.3125 443.593 98.44 442.695 99.87C441.796 101.282 441.246 102.858 441.045 104.6ZM469.189 120V92.5H473.039V96.295C474.01 94.9017 475.275 93.7925 476.834 92.9675C478.392 92.1425 480.088 91.73 481.921 91.73C482.985 91.73 484.011 91.8675 485.001 92.1425L483.434 95.965C482.664 95.7267 481.912 95.6075 481.179 95.6075C479.694 95.6075 478.328 95.9742 477.081 96.7075C475.853 97.4408 474.872 98.4217 474.139 99.65C473.405 100.878 473.039 102.244 473.039 103.747V120H469.189Z" fill="#28E98C" fill-opacity="0.15"/>
<path d="M3.3 145V106.5H25.8225V110.35H7.15V122.45H23.1825V126.3H7.15V145H3.3ZM27.7664 134.467V117.5H31.6164V133.697C31.6164 135.201 31.9831 136.567 32.7164 137.795C33.4497 139.023 34.4306 140.004 35.6589 140.737C36.9056 141.471 38.2714 141.837 39.7564 141.837C41.2597 141.837 42.6164 141.471 43.8264 140.737C45.0547 140.004 46.0356 139.023 46.7689 137.795C47.5022 136.567 47.8689 135.201 47.8689 133.697V117.5H51.7189L51.7464 145H47.8964L47.8689 141.15C46.8972 142.543 45.6322 143.652 44.0739 144.477C42.5339 145.302 40.8472 145.715 39.0139 145.715C36.9422 145.715 35.0539 145.211 33.3489 144.202C31.6439 143.194 30.2872 141.837 29.2789 140.132C28.2706 138.427 27.7664 136.539 27.7664 134.467ZM57.6018 145V103.75H61.4518V145H57.6018ZM68.0754 145V103.75H71.9254V145H68.0754ZM105.209 145.715C103.156 145.715 101.167 145.394 99.2419 144.752C97.3352 144.111 95.6669 143.194 94.2369 142.002C92.8069 140.811 91.7986 139.39 91.2119 137.74L94.8144 136.392C95.2177 137.529 95.9511 138.51 97.0144 139.335C98.0961 140.142 99.3519 140.765 100.782 141.205C102.23 141.645 103.706 141.865 105.209 141.865C106.969 141.865 108.61 141.572 110.132 140.985C111.654 140.398 112.882 139.582 113.817 138.537C114.752 137.474 115.219 136.227 115.219 134.797C115.219 133.349 114.734 132.157 113.762 131.222C112.79 130.287 111.534 129.554 109.994 129.022C108.473 128.472 106.878 128.051 105.209 127.757C102.588 127.299 100.232 126.676 98.1419 125.887C96.0702 125.099 94.4294 123.99 93.2194 122.56C92.0094 121.112 91.4044 119.205 91.4044 116.84C91.4044 114.622 92.0461 112.697 93.3294 111.065C94.6127 109.433 96.2994 108.168 98.3894 107.27C100.498 106.372 102.771 105.922 105.209 105.922C107.208 105.922 109.16 106.234 111.067 106.857C112.974 107.481 114.651 108.388 116.099 109.58C117.566 110.772 118.62 112.229 119.262 113.952L115.604 115.272C115.201 114.117 114.459 113.137 113.377 112.33C112.314 111.505 111.067 110.882 109.637 110.46C108.207 110.02 106.731 109.8 105.209 109.8C103.468 109.782 101.836 110.075 100.314 110.68C98.8111 111.267 97.5919 112.092 96.6569 113.155C95.7219 114.2 95.2544 115.428 95.2544 116.84C95.2544 118.49 95.6852 119.764 96.5469 120.662C97.4269 121.542 98.6186 122.202 100.122 122.642C101.625 123.082 103.321 123.477 105.209 123.825C107.666 124.247 109.949 124.907 112.057 125.805C114.165 126.685 115.861 127.867 117.144 129.352C118.428 130.819 119.069 132.634 119.069 134.797C119.069 136.997 118.428 138.922 117.144 140.572C115.861 142.204 114.165 143.469 112.057 144.367C109.967 145.266 107.684 145.715 105.209 145.715ZM139.115 121.35H132.543L132.515 145H128.665L128.693 121.35H123.715V117.5H128.693L128.665 108.865H132.515L132.543 117.5H139.115V121.35ZM165.876 117.5H169.726V145H165.876L165.738 139.885C164.84 141.627 163.584 143.038 161.971 144.12C160.357 145.183 158.432 145.715 156.196 145.715C154.179 145.715 152.291 145.339 150.531 144.587C148.771 143.817 147.222 142.763 145.883 141.425C144.545 140.087 143.5 138.537 142.748 136.777C141.997 135.017 141.621 133.129 141.621 131.113C141.621 129.132 141.987 127.272 142.721 125.53C143.472 123.788 144.499 122.257 145.801 120.937C147.121 119.617 148.642 118.591 150.366 117.857C152.107 117.106 153.968 116.73 155.948 116.73C158.24 116.73 160.238 117.28 161.943 118.38C163.648 119.462 165.005 120.882 166.013 122.642L165.876 117.5ZM156.113 141.975C158.075 141.975 159.762 141.498 161.173 140.545C162.585 139.573 163.667 138.272 164.418 136.64C165.188 135.008 165.573 133.212 165.573 131.25C165.573 129.233 165.188 127.418 164.418 125.805C163.648 124.173 162.557 122.881 161.146 121.927C159.734 120.974 158.057 120.497 156.113 120.497C154.17 120.497 152.392 120.983 150.778 121.955C149.183 122.908 147.909 124.201 146.956 125.832C146.021 127.464 145.553 129.27 145.553 131.25C145.553 133.248 146.039 135.063 147.011 136.695C147.982 138.308 149.266 139.592 150.861 140.545C152.474 141.498 154.225 141.975 156.113 141.975ZM194.327 138.097L197.764 139.967C196.517 141.709 194.932 143.102 193.007 144.147C191.1 145.192 189.028 145.715 186.792 145.715C184.262 145.715 181.952 145.064 179.862 143.762C177.79 142.461 176.131 140.719 174.884 138.537C173.656 136.337 173.042 133.908 173.042 131.25C173.042 129.233 173.399 127.354 174.114 125.612C174.829 123.852 175.81 122.312 177.057 120.992C178.322 119.654 179.788 118.609 181.457 117.857C183.125 117.106 184.903 116.73 186.792 116.73C189.028 116.73 191.1 117.252 193.007 118.297C194.932 119.342 196.517 120.745 197.764 122.505L194.327 124.347C193.373 123.137 192.227 122.212 190.889 121.57C189.551 120.91 188.185 120.58 186.792 120.58C184.94 120.58 183.262 121.075 181.759 122.065C180.256 123.037 179.064 124.329 178.184 125.942C177.322 127.556 176.892 129.325 176.892 131.25C176.892 133.175 177.332 134.944 178.212 136.557C179.11 138.171 180.311 139.463 181.814 140.435C183.317 141.388 184.977 141.865 186.792 141.865C188.295 141.865 189.707 141.517 191.027 140.82C192.347 140.123 193.447 139.216 194.327 138.097ZM223.83 145H219.403L211.703 131.717L206.203 138.29V145H202.353V103.75H206.203V132.295L218.605 117.5H223.638L214.315 128.582L223.83 145ZM242.582 145V106.5H255.315C257.973 106.5 260.466 107.004 262.795 108.012C265.123 109.002 267.167 110.387 268.927 112.165C270.687 113.925 272.062 115.969 273.052 118.297C274.061 120.607 274.565 123.092 274.565 125.75C274.565 128.408 274.061 130.902 273.052 133.23C272.062 135.54 270.687 137.584 268.927 139.362C267.167 141.122 265.123 142.507 262.795 143.515C260.466 144.505 257.973 145 255.315 145H242.582ZM246.432 141.15H255.315C257.441 141.15 259.431 140.756 261.282 139.967C263.152 139.161 264.793 138.052 266.205 136.64C267.616 135.228 268.716 133.597 269.505 131.745C270.311 129.875 270.715 127.877 270.715 125.75C270.715 123.623 270.311 121.634 269.505 119.782C268.716 117.912 267.607 116.272 266.177 114.86C264.766 113.448 263.134 112.348 261.282 111.56C259.431 110.753 257.441 110.35 255.315 110.35H246.432V141.15ZM291.259 145.715C288.729 145.715 286.419 145.064 284.329 143.762C282.258 142.461 280.599 140.719 279.352 138.537C278.124 136.337 277.509 133.908 277.509 131.25C277.509 129.233 277.867 127.354 278.582 125.612C279.297 123.852 280.278 122.312 281.524 120.992C282.789 119.654 284.256 118.609 285.924 117.857C287.593 117.106 289.371 116.73 291.259 116.73C293.294 116.73 295.164 117.133 296.869 117.94C298.593 118.747 300.069 119.874 301.297 121.322C302.544 122.771 303.479 124.467 304.102 126.41C304.744 128.353 305.009 130.452 304.899 132.707H281.579C281.799 134.449 282.349 136.007 283.229 137.382C284.128 138.757 285.264 139.848 286.639 140.655C288.033 141.443 289.573 141.847 291.259 141.865C293.093 141.865 294.743 141.388 296.209 140.435C297.694 139.482 298.886 138.171 299.784 136.502L303.689 137.41C302.589 139.848 300.93 141.847 298.712 143.405C296.494 144.945 294.009 145.715 291.259 145.715ZM281.469 129.6H301.022C300.894 127.895 300.371 126.337 299.454 124.925C298.556 123.495 297.392 122.358 295.962 121.515C294.532 120.653 292.964 120.222 291.259 120.222C289.554 120.222 287.996 120.644 286.584 121.487C285.173 122.312 284.018 123.44 283.119 124.87C282.221 126.282 281.671 127.858 281.469 129.6ZM321.714 145H316.819L306.782 117.417H310.879L319.267 140.49L327.654 117.417H331.752L321.714 145ZM347.334 145.715C344.804 145.715 342.494 145.064 340.404 143.762C338.332 142.461 336.673 140.719 335.426 138.537C334.198 136.337 333.584 133.908 333.584 131.25C333.584 129.233 333.941 127.354 334.656 125.612C335.371 123.852 336.352 122.312 337.599 120.992C338.864 119.654 340.33 118.609 341.999 117.857C343.667 117.106 345.445 116.73 347.334 116.73C349.369 116.73 351.239 117.133 352.944 117.94C354.667 118.747 356.143 119.874 357.371 121.322C358.618 122.771 359.553 124.467 360.176 126.41C360.818 128.353 361.084 130.452 360.974 132.707H337.654C337.874 134.449 338.424 136.007 339.304 137.382C340.202 138.757 341.339 139.848 342.714 140.655C344.107 141.443 345.647 141.847 347.334 141.865C349.167 141.865 350.817 141.388 352.284 140.435C353.769 139.482 354.96 138.171 355.859 136.502L359.764 137.41C358.664 139.848 357.004 141.847 354.786 143.405C352.568 144.945 350.084 145.715 347.334 145.715ZM337.544 129.6H357.096C356.968 127.895 356.445 126.337 355.529 124.925C354.63 123.495 353.466 122.358 352.036 121.515C350.606 120.653 349.039 120.222 347.334 120.222C345.629 120.222 344.07 120.644 342.659 121.487C341.247 122.312 340.092 123.44 339.194 124.87C338.295 126.282 337.745 127.858 337.544 129.6ZM365.473 145V103.75H369.323V145H365.473ZM387.832 145.715C385.302 145.715 382.992 145.064 380.902 143.762C378.83 142.461 377.171 140.719 375.924 138.537C374.696 136.337 374.082 133.908 374.082 131.25C374.082 129.233 374.439 127.354 375.154 125.612C375.869 123.852 376.85 122.312 378.097 120.992C379.362 119.654 380.828 118.609 382.497 117.857C384.165 117.106 385.943 116.73 387.832 116.73C390.362 116.73 392.662 117.381 394.734 118.682C396.824 119.984 398.483 121.735 399.712 123.935C400.958 126.135 401.582 128.573 401.582 131.25C401.582 133.248 401.224 135.118 400.509 136.86C399.794 138.602 398.804 140.142 397.539 141.48C396.292 142.8 394.835 143.836 393.167 144.587C391.517 145.339 389.738 145.715 387.832 145.715ZM387.832 141.865C389.702 141.865 391.379 141.379 392.864 140.407C394.367 139.417 395.55 138.116 396.412 136.502C397.292 134.889 397.732 133.138 397.732 131.25C397.732 129.325 397.292 127.556 396.412 125.942C395.532 124.311 394.34 123.009 392.837 122.037C391.352 121.066 389.683 120.58 387.832 120.58C385.962 120.58 384.275 121.075 382.772 122.065C381.287 123.037 380.104 124.329 379.224 125.942C378.362 127.556 377.932 129.325 377.932 131.25C377.932 133.23 378.381 135.027 379.279 136.64C380.177 138.235 381.378 139.509 382.882 140.462C384.385 141.397 386.035 141.865 387.832 141.865ZM410.089 158.75H406.239V117.5H410.089V122.642C411.043 120.901 412.344 119.489 413.994 118.407C415.644 117.326 417.606 116.785 419.879 116.785C421.878 116.785 423.748 117.161 425.489 117.912C427.249 118.664 428.789 119.709 430.109 121.047C431.429 122.367 432.465 123.898 433.217 125.64C433.969 127.382 434.344 129.252 434.344 131.25C434.344 133.248 433.969 135.127 433.217 136.887C432.465 138.647 431.429 140.197 430.109 141.535C428.789 142.855 427.249 143.891 425.489 144.642C423.748 145.394 421.878 145.77 419.879 145.77C417.606 145.77 415.644 145.229 413.994 144.147C412.344 143.066 411.043 141.654 410.089 139.912V158.75ZM419.852 120.525C417.927 120.525 416.249 121.011 414.819 121.982C413.408 122.936 412.317 124.219 411.547 125.832C410.777 127.446 410.392 129.252 410.392 131.25C410.392 133.212 410.768 135.008 411.519 136.64C412.289 138.272 413.38 139.573 414.792 140.545C416.222 141.517 417.909 142.002 419.852 142.002C421.759 142.002 423.509 141.526 425.104 140.572C426.718 139.619 428.01 138.336 428.982 136.722C429.954 135.091 430.439 133.267 430.439 131.25C430.439 129.288 429.963 127.501 429.009 125.887C428.056 124.256 426.782 122.954 425.187 121.982C423.592 121.011 421.814 120.525 419.852 120.525ZM450.835 145.715C448.305 145.715 445.995 145.064 443.905 143.762C441.833 142.461 440.174 140.719 438.927 138.537C437.699 136.337 437.085 133.908 437.085 131.25C437.085 129.233 437.442 127.354 438.157 125.612C438.872 123.852 439.853 122.312 441.1 120.992C442.365 119.654 443.831 118.609 445.5 117.857C447.168 117.106 448.946 116.73 450.835 116.73C452.87 116.73 454.74 117.133 456.445 117.94C458.168 118.747 459.644 119.874 460.872 121.322C462.119 122.771 463.054 124.467 463.677 126.41C464.319 128.353 464.585 130.452 464.475 132.707H441.155C441.375 134.449 441.925 136.007 442.805 137.382C443.703 138.757 444.84 139.848 446.215 140.655C447.608 141.443 449.148 141.847 450.835 141.865C452.668 141.865 454.318 141.388 455.785 140.435C457.27 139.482 458.461 138.171 459.36 136.502L463.265 137.41C462.165 139.848 460.505 141.847 458.287 143.405C456.069 144.945 453.585 145.715 450.835 145.715ZM441.045 129.6H460.597C460.469 127.895 459.946 126.337 459.03 124.925C458.131 123.495 456.967 122.358 455.537 121.515C454.107 120.653 452.54 120.222 450.835 120.222C449.13 120.222 447.571 120.644 446.16 121.487C444.748 122.312 443.593 123.44 442.695 124.87C441.796 126.282 441.246 127.858 441.045 129.6ZM469.189 145V117.5H473.039V121.295C474.01 119.902 475.275 118.792 476.834 117.967C478.392 117.142 480.088 116.73 481.921 116.73C482.985 116.73 484.011 116.867 485.001 117.142L483.434 120.965C482.664 120.727 481.912 120.607 481.179 120.607C479.694 120.607 478.328 120.974 477.081 121.707C475.853 122.441 474.872 123.422 474.139 124.65C473.405 125.878 473.039 127.244 473.039 128.747V145H469.189Z" fill="#28E98C" fill-opacity="0.1"/>
<path d="M3.3 164V125.5H25.8225V129.35H7.15V141.45H23.1825V145.3H7.15V164H3.3ZM27.7664 153.467V136.5H31.6164V152.697C31.6164 154.201 31.9831 155.567 32.7164 156.795C33.4497 158.023 34.4306 159.004 35.6589 159.737C36.9056 160.471 38.2714 160.837 39.7564 160.837C41.2597 160.837 42.6164 160.471 43.8264 159.737C45.0547 159.004 46.0356 158.023 46.7689 156.795C47.5022 155.567 47.8689 154.201 47.8689 152.697V136.5H51.7189L51.7464 164H47.8964L47.8689 160.15C46.8972 161.543 45.6322 162.652 44.0739 163.477C42.5339 164.302 40.8472 164.715 39.0139 164.715C36.9422 164.715 35.0539 164.211 33.3489 163.202C31.6439 162.194 30.2872 160.837 29.2789 159.132C28.2706 157.427 27.7664 155.539 27.7664 153.467ZM57.6018 164V122.75H61.4518V164H57.6018ZM68.0754 164V122.75H71.9254V164H68.0754ZM105.209 164.715C103.156 164.715 101.167 164.394 99.2419 163.752C97.3352 163.111 95.6669 162.194 94.2369 161.002C92.8069 159.811 91.7986 158.39 91.2119 156.74L94.8144 155.392C95.2177 156.529 95.9511 157.51 97.0144 158.335C98.0961 159.142 99.3519 159.765 100.782 160.205C102.23 160.645 103.706 160.865 105.209 160.865C106.969 160.865 108.61 160.572 110.132 159.985C111.654 159.398 112.882 158.582 113.817 157.537C114.752 156.474 115.219 155.227 115.219 153.797C115.219 152.349 114.734 151.157 113.762 150.222C112.79 149.287 111.534 148.554 109.994 148.022C108.473 147.472 106.878 147.051 105.209 146.757C102.588 146.299 100.232 145.676 98.1419 144.887C96.0702 144.099 94.4294 142.99 93.2194 141.56C92.0094 140.112 91.4044 138.205 91.4044 135.84C91.4044 133.622 92.0461 131.697 93.3294 130.065C94.6127 128.433 96.2994 127.168 98.3894 126.27C100.498 125.372 102.771 124.922 105.209 124.922C107.208 124.922 109.16 125.234 111.067 125.857C112.974 126.481 114.651 127.388 116.099 128.58C117.566 129.772 118.62 131.229 119.262 132.952L115.604 134.272C115.201 133.117 114.459 132.137 113.377 131.33C112.314 130.505 111.067 129.882 109.637 129.46C108.207 129.02 106.731 128.8 105.209 128.8C103.468 128.782 101.836 129.075 100.314 129.68C98.8111 130.267 97.5919 131.092 96.6569 132.155C95.7219 133.2 95.2544 134.428 95.2544 135.84C95.2544 137.49 95.6852 138.764 96.5469 139.662C97.4269 140.542 98.6186 141.202 100.122 141.642C101.625 142.082 103.321 142.477 105.209 142.825C107.666 143.247 109.949 143.907 112.057 144.805C114.165 145.685 115.861 146.867 117.144 148.352C118.428 149.819 119.069 151.634 119.069 153.797C119.069 155.997 118.428 157.922 117.144 159.572C115.861 161.204 114.165 162.469 112.057 163.367C109.967 164.266 107.684 164.715 105.209 164.715ZM139.115 140.35H132.543L132.515 164H128.665L128.693 140.35H123.715V136.5H128.693L128.665 127.865H132.515L132.543 136.5H139.115V140.35ZM165.876 136.5H169.726V164H165.876L165.738 158.885C164.84 160.627 163.584 162.038 161.971 163.12C160.357 164.183 158.432 164.715 156.196 164.715C154.179 164.715 152.291 164.339 150.531 163.587C148.771 162.817 147.222 161.763 145.883 160.425C144.545 159.087 143.5 157.537 142.748 155.777C141.997 154.017 141.621 152.129 141.621 150.113C141.621 148.132 141.987 146.272 142.721 144.53C143.472 142.788 144.499 141.257 145.801 139.937C147.121 138.617 148.642 137.591 150.366 136.857C152.107 136.106 153.968 135.73 155.948 135.73C158.24 135.73 160.238 136.28 161.943 137.38C163.648 138.462 165.005 139.882 166.013 141.642L165.876 136.5ZM156.113 160.975C158.075 160.975 159.762 160.498 161.173 159.545C162.585 158.573 163.667 157.272 164.418 155.64C165.188 154.008 165.573 152.212 165.573 150.25C165.573 148.233 165.188 146.418 164.418 144.805C163.648 143.173 162.557 141.881 161.146 140.927C159.734 139.974 158.057 139.497 156.113 139.497C154.17 139.497 152.392 139.983 150.778 140.955C149.183 141.908 147.909 143.201 146.956 144.832C146.021 146.464 145.553 148.27 145.553 150.25C145.553 152.248 146.039 154.063 147.011 155.695C147.982 157.308 149.266 158.592 150.861 159.545C152.474 160.498 154.225 160.975 156.113 160.975ZM194.327 157.097L197.764 158.967C196.517 160.709 194.932 162.102 193.007 163.147C191.1 164.192 189.028 164.715 186.792 164.715C184.262 164.715 181.952 164.064 179.862 162.762C177.79 161.461 176.131 159.719 174.884 157.537C173.656 155.337 173.042 152.908 173.042 150.25C173.042 148.233 173.399 146.354 174.114 144.612C174.829 142.852 175.81 141.312 177.057 139.992C178.322 138.654 179.788 137.609 181.457 136.857C183.125 136.106 184.903 135.73 186.792 135.73C189.028 135.73 191.1 136.252 193.007 137.297C194.932 138.342 196.517 139.745 197.764 141.505L194.327 143.347C193.373 142.137 192.227 141.212 190.889 140.57C189.551 139.91 188.185 139.58 186.792 139.58C184.94 139.58 183.262 140.075 181.759 141.065C180.256 142.037 179.064 143.329 178.184 144.942C177.322 146.556 176.892 148.325 176.892 150.25C176.892 152.175 177.332 153.944 178.212 155.557C179.11 157.171 180.311 158.463 181.814 159.435C183.317 160.388 184.977 160.865 186.792 160.865C188.295 160.865 189.707 160.517 191.027 159.82C192.347 159.123 193.447 158.216 194.327 157.097ZM223.83 164H219.403L211.703 150.717L206.203 157.29V164H202.353V122.75H206.203V151.295L218.605 136.5H223.638L214.315 147.582L223.83 164ZM242.582 164V125.5H255.315C257.973 125.5 260.466 126.004 262.795 127.012C265.123 128.002 267.167 129.387 268.927 131.165C270.687 132.925 272.062 134.969 273.052 137.297C274.061 139.607 274.565 142.092 274.565 144.75C274.565 147.408 274.061 149.902 273.052 152.23C272.062 154.54 270.687 156.584 268.927 158.362C267.167 160.122 265.123 161.507 262.795 162.515C260.466 163.505 257.973 164 255.315 164H242.582ZM246.432 160.15H255.315C257.441 160.15 259.431 159.756 261.282 158.967C263.152 158.161 264.793 157.052 266.205 155.64C267.616 154.228 268.716 152.597 269.505 150.745C270.311 148.875 270.715 146.877 270.715 144.75C270.715 142.623 270.311 140.634 269.505 138.782C268.716 136.912 267.607 135.272 266.177 133.86C264.766 132.448 263.134 131.348 261.282 130.56C259.431 129.753 257.441 129.35 255.315 129.35H246.432V160.15ZM291.259 164.715C288.729 164.715 286.419 164.064 284.329 162.762C282.258 161.461 280.599 159.719 279.352 157.537C278.124 155.337 277.509 152.908 277.509 150.25C277.509 148.233 277.867 146.354 278.582 144.612C279.297 142.852 280.278 141.312 281.524 139.992C282.789 138.654 284.256 137.609 285.924 136.857C287.593 136.106 289.371 135.73 291.259 135.73C293.294 135.73 295.164 136.133 296.869 136.94C298.593 137.747 300.069 138.874 301.297 140.322C302.544 141.771 303.479 143.467 304.102 145.41C304.744 147.353 305.009 149.452 304.899 151.707H281.579C281.799 153.449 282.349 155.007 283.229 156.382C284.128 157.757 285.264 158.848 286.639 159.655C288.033 160.443 289.573 160.847 291.259 160.865C293.093 160.865 294.743 160.388 296.209 159.435C297.694 158.482 298.886 157.171 299.784 155.502L303.689 156.41C302.589 158.848 300.93 160.847 298.712 162.405C296.494 163.945 294.009 164.715 291.259 164.715ZM281.469 148.6H301.022C300.894 146.895 300.371 145.337 299.454 143.925C298.556 142.495 297.392 141.358 295.962 140.515C294.532 139.653 292.964 139.222 291.259 139.222C289.554 139.222 287.996 139.644 286.584 140.487C285.173 141.312 284.018 142.44 283.119 143.87C282.221 145.282 281.671 146.858 281.469 148.6ZM321.714 164H316.819L306.782 136.417H310.879L319.267 159.49L327.654 136.417H331.752L321.714 164ZM347.334 164.715C344.804 164.715 342.494 164.064 340.404 162.762C338.332 161.461 336.673 159.719 335.426 157.537C334.198 155.337 333.584 152.908 333.584 150.25C333.584 148.233 333.941 146.354 334.656 144.612C335.371 142.852 336.352 141.312 337.599 139.992C338.864 138.654 340.33 137.609 341.999 136.857C343.667 136.106 345.445 135.73 347.334 135.73C349.369 135.73 351.239 136.133 352.944 136.94C354.667 137.747 356.143 138.874 357.371 140.322C358.618 141.771 359.553 143.467 360.176 145.41C360.818 147.353 361.084 149.452 360.974 151.707H337.654C337.874 153.449 338.424 155.007 339.304 156.382C340.202 157.757 341.339 158.848 342.714 159.655C344.107 160.443 345.647 160.847 347.334 160.865C349.167 160.865 350.817 160.388 352.284 159.435C353.769 158.482 354.96 157.171 355.859 155.502L359.764 156.41C358.664 158.848 357.004 160.847 354.786 162.405C352.568 163.945 350.084 164.715 347.334 164.715ZM337.544 148.6H357.096C356.968 146.895 356.445 145.337 355.529 143.925C354.63 142.495 353.466 141.358 352.036 140.515C350.606 139.653 349.039 139.222 347.334 139.222C345.629 139.222 344.07 139.644 342.659 140.487C341.247 141.312 340.092 142.44 339.194 143.87C338.295 145.282 337.745 146.858 337.544 148.6ZM365.473 164V122.75H369.323V164H365.473ZM387.832 164.715C385.302 164.715 382.992 164.064 380.902 162.762C378.83 161.461 377.171 159.719 375.924 157.537C374.696 155.337 374.082 152.908 374.082 150.25C374.082 148.233 374.439 146.354 375.154 144.612C375.869 142.852 376.85 141.312 378.097 139.992C379.362 138.654 380.828 137.609 382.497 136.857C384.165 136.106 385.943 135.73 387.832 135.73C390.362 135.73 392.662 136.381 394.734 137.682C396.824 138.984 398.483 140.735 399.712 142.935C400.958 145.135 401.582 147.573 401.582 150.25C401.582 152.248 401.224 154.118 400.509 155.86C399.794 157.602 398.804 159.142 397.539 160.48C396.292 161.8 394.835 162.836 393.167 163.587C391.517 164.339 389.738 164.715 387.832 164.715ZM387.832 160.865C389.702 160.865 391.379 160.379 392.864 159.407C394.367 158.417 395.55 157.116 396.412 155.502C397.292 153.889 397.732 152.138 397.732 150.25C397.732 148.325 397.292 146.556 396.412 144.942C395.532 143.311 394.34 142.009 392.837 141.037C391.352 140.066 389.683 139.58 387.832 139.58C385.962 139.58 384.275 140.075 382.772 141.065C381.287 142.037 380.104 143.329 379.224 144.942C378.362 146.556 377.932 148.325 377.932 150.25C377.932 152.23 378.381 154.027 379.279 155.64C380.177 157.235 381.378 158.509 382.882 159.462C384.385 160.397 386.035 160.865 387.832 160.865ZM410.089 177.75H406.239V136.5H410.089V141.642C411.043 139.901 412.344 138.489 413.994 137.407C415.644 136.326 417.606 135.785 419.879 135.785C421.878 135.785 423.748 136.161 425.489 136.912C427.249 137.664 428.789 138.709 430.109 140.047C431.429 141.367 432.465 142.898 433.217 144.64C433.969 146.382 434.344 148.252 434.344 150.25C434.344 152.248 433.969 154.127 433.217 155.887C432.465 157.647 431.429 159.197 430.109 160.535C428.789 161.855 427.249 162.891 425.489 163.642C423.748 164.394 421.878 164.77 419.879 164.77C417.606 164.77 415.644 164.229 413.994 163.147C412.344 162.066 411.043 160.654 410.089 158.912V177.75ZM419.852 139.525C417.927 139.525 416.249 140.011 414.819 140.982C413.408 141.936 412.317 143.219 411.547 144.832C410.777 146.446 410.392 148.252 410.392 150.25C410.392 152.212 410.768 154.008 411.519 155.64C412.289 157.272 413.38 158.573 414.792 159.545C416.222 160.517 417.909 161.002 419.852 161.002C421.759 161.002 423.509 160.526 425.104 159.572C426.718 158.619 428.01 157.336 428.982 155.722C429.954 154.091 430.439 152.267 430.439 150.25C430.439 148.288 429.963 146.501 429.009 144.887C428.056 143.256 426.782 141.954 425.187 140.982C423.592 140.011 421.814 139.525 419.852 139.525ZM450.835 164.715C448.305 164.715 445.995 164.064 443.905 162.762C441.833 161.461 440.174 159.719 438.927 157.537C437.699 155.337 437.085 152.908 437.085 150.25C437.085 148.233 437.442 146.354 438.157 144.612C438.872 142.852 439.853 141.312 441.1 139.992C442.365 138.654 443.831 137.609 445.5 136.857C447.168 136.106 448.946 135.73 450.835 135.73C452.87 135.73 454.74 136.133 456.445 136.94C458.168 137.747 459.644 138.874 460.872 140.322C462.119 141.771 463.054 143.467 463.677 145.41C464.319 147.353 464.585 149.452 464.475 151.707H441.155C441.375 153.449 441.925 155.007 442.805 156.382C443.703 157.757 444.84 158.848 446.215 159.655C447.608 160.443 449.148 160.847 450.835 160.865C452.668 160.865 454.318 160.388 455.785 159.435C457.27 158.482 458.461 157.171 459.36 155.502L463.265 156.41C462.165 158.848 460.505 160.847 458.287 162.405C456.069 163.945 453.585 164.715 450.835 164.715ZM441.045 148.6H460.597C460.469 146.895 459.946 145.337 459.03 143.925C458.131 142.495 456.967 141.358 455.537 140.515C454.107 139.653 452.54 139.222 450.835 139.222C449.13 139.222 447.571 139.644 446.16 140.487C444.748 141.312 443.593 142.44 442.695 143.87C441.796 145.282 441.246 146.858 441.045 148.6ZM469.189 164V136.5H473.039V140.295C474.01 138.902 475.275 137.792 476.834 136.967C478.392 136.142 480.088 135.73 481.921 135.73C482.985 135.73 484.011 135.867 485.001 136.142L483.434 139.965C482.664 139.727 481.912 139.607 481.179 139.607C479.694 139.607 478.328 139.974 477.081 140.707C475.853 141.441 474.872 142.422 474.139 143.65C473.405 144.878 473.039 146.244 473.039 147.747V164H469.189Z" fill="#28E98C" fill-opacity="0.05"/>
</svg>
